<?xml version="1.0" encoding="UTF-8"?><svg id="Elias Baumann" xmlns="http://www.w3.org/2000/svg" viewBox="0 0 425.2 425.2"><defs><style>.cls-1{fill:none;}.cls-1,.cls-2{stroke-width:0px;}.cls-2{fill:#1d1d1b;}</style></defs><rect class="cls-1" width="425.2" height="425.2"/><path class="cls-2" d="M124.47,238.91c-15.95,0-30.07-3.41-42.34-10.22-12.29-6.82-21.83-16.37-28.65-28.65-6.83-12.27-10.24-26.5-10.24-42.67s3.36-31.24,10.07-43.92c6.71-12.71,16.22-22.68,28.49-29.93,12.29-7.23,26.51-10.86,42.67-10.86s29.49,3.48,41.26,10.4c11.75,6.92,20.88,16.27,27.39,28.03,6.51,11.74,9.76,25.09,9.76,39.97v7.1c0,2.61-.22,5.3-.63,8.02H73.46v-25.83h86.59c-.63-10.28-4.24-18.35-10.85-24.24-6.61-5.87-14.86-8.81-24.73-8.81-7.14,0-13.75,1.64-19.83,4.89-6.09,3.25-10.86,8.23-14.32,14.94s-5.2,15.22-5.2,25.52v9.12c0,8.61,1.63,16.12,4.88,22.5,3.25,6.41,7.83,11.35,13.7,14.81,5.88,3.46,12.7,5.2,20.47,5.2s14.22-1.69,19.36-5.05c5.15-3.36,8.98-7.66,11.49-12.91h43.46c-2.95,9.89-7.88,18.81-14.8,26.78-6.93,7.97-15.44,14.27-25.51,18.89-10.07,4.61-21.31,6.92-33.7,6.92Z"/><path class="cls-2" d="M306.08,352.54c-8.19,0-15.49-1.05-21.88-3.13-6.41-2.1-12.08-5-17-8.66-4.95-3.69-9.08-7.82-12.44-12.45l-4.73,20.47h-37.78V74.98h42.51v137.14c5.04-7.35,11.7-13.48,19.99-18.42,8.29-4.92,18.63-7.41,31.02-7.41,14.7,0,27.76,3.64,39.21,10.86,11.44,7.25,20.46,17.12,27.07,29.6,6.61,12.5,9.92,26.83,9.92,43s-3.31,29.9-9.92,42.51c-6.61,12.58-15.58,22.45-26.92,29.6-11.34,7.12-24.36,10.69-39.04,10.69ZM296,315.38c8.39,0,15.8-1.92,22.2-5.82,6.39-3.87,11.38-9.22,14.95-16.07,3.57-6.82,5.36-14.73,5.36-23.75s-1.78-17.07-5.36-24.09c-3.57-7.05-8.56-12.5-14.95-16.37-6.41-3.89-13.81-5.84-22.2-5.84s-15.48,1.95-21.88,5.84c-6.41,3.87-11.44,9.28-15.11,16.22-3.68,6.92-5.52,14.89-5.52,23.91s1.84,17.07,5.52,24.09c3.66,7.05,8.7,12.45,15.11,16.22,6.41,3.79,13.7,5.66,21.88,5.66Z"/></svg>